<svg width="1313" height="440" viewBox="0 0 1313 440" fill="none" xmlns="http://www.w3.org/2000/svg">
<path d="M244.451 64.372C241.972 61.0458 239.596 57.8237 236.394 53.6658C202.515 58.3434 169.566 67.9062 135.48 69.6733C134.654 73.9351 134.034 77.0535 133.414 80.6916C131.555 81.1074 129.283 82.5628 127.837 81.9392C113.169 75.9103 99.3285 80.6915 85.7975 85.2651C71.9567 89.9426 59.7689 97.323 50.5762 109.381C46.961 114.162 42.0028 117.904 36.8383 122.894C38.5943 124.765 40.7632 127.155 43.9652 130.585C41.7961 132.041 39.9369 133.496 37.7678 134.535C36.6317 135.055 34.8758 134.223 33.7396 134.743C23.7205 138.901 10.0862 139.525 5.74805 150.023C1.2033 160.938 -0.13936 173.723 1.71985 186.404C5.12841 209.48 18.2462 225.279 37.3548 237.025C44.9982 241.703 52.745 246.173 60.1819 250.642C62.1444 255.32 62.8675 260.621 65.9662 263.843C72.68 271.016 74.9522 279.019 74.5391 288.478C74.4358 292.532 74.6424 296.586 78.2576 299.808C80.0135 301.367 81.3564 304.486 81.4597 306.877C82.286 321.325 89.2061 333.071 96.6429 344.713C101.601 352.405 108.212 357.81 116.578 362.072C128.147 367.997 138.682 375.896 149.837 382.549C153.762 384.939 158.41 387.226 162.955 387.434C172.768 387.954 181.857 390.656 190.74 394.606C195.078 396.581 199.623 398.557 204.374 399.492C226.582 403.65 248.892 407.392 271.1 411.446C279.156 412.901 287.419 413.836 295.269 416.331C316.237 422.879 337.515 428.285 359.205 431.611C365.713 432.65 372.84 431.091 379.554 430.052C386.577 428.908 393.187 427.869 398.765 433.794C401.347 436.497 404.756 436.912 408.268 435.457C419.217 430.883 429.855 434.729 440.597 436.393C445.968 437.224 451.546 438.575 456.814 437.952C485.632 435.041 514.45 435.769 543.268 438.055C548.019 438.471 553.08 439.719 557.625 438.783C589.955 431.715 623.007 433.586 655.647 429.324C658.332 429.012 661.431 428.7 663.497 427.141C673.826 419.553 684.774 421.424 694.897 426.102C705.122 430.779 714.418 429.948 724.851 427.661C738.898 424.646 753.462 424.231 767.613 421.736C787.134 418.202 806.346 413.005 826.488 414.044C833.201 414.356 840.225 412.277 846.732 410.302C861.606 405.729 876.687 405.832 891.767 408.015C899.514 409.159 906.434 408.535 913.871 405.936C930.087 400.323 946.613 395.75 963.863 393.775C981.629 391.8 999.085 387.85 1016.64 384.42C1020.57 383.692 1024.29 381.405 1028.21 379.95C1034.62 377.559 1041.02 375.273 1047.53 372.986C1048.87 372.57 1050.32 372.57 1051.56 371.947C1073.04 359.577 1097.11 352.924 1118.8 341.179C1128.3 335.981 1137.08 328.809 1145.03 321.221C1158.98 307.916 1175.5 297.21 1185.11 279.643C1186.45 277.252 1188.83 275.173 1189.45 272.575C1196.68 243.158 1205.97 213.846 1194.51 183.182C1192.65 178.296 1192.03 172.372 1192.65 167.174C1193.58 159.378 1202.46 156.364 1208.35 161.457C1212.48 165.095 1216.1 169.253 1219.92 173.307C1227.87 181.623 1236.55 185.469 1247.39 178.608C1248.94 177.569 1251.11 177.568 1252.97 177.153C1258.24 187.963 1258.24 187.963 1271.15 193.368C1271.05 201.476 1274.35 207.817 1282.51 212.702C1287.99 215.924 1290.77 223.408 1295.01 228.71C1298.83 233.491 1303.07 234.53 1307.71 232.244C1312.67 229.853 1313.39 227.774 1311.95 218.003C1308.13 218.835 1304.31 219.666 1300.59 220.498C1303.58 205.738 1303.58 205.738 1295.84 181.934C1294.18 181.726 1292.22 181.207 1290.26 181.31C1288.3 181.414 1286.33 182.246 1284.47 182.662C1279.72 176.01 1286.54 170.812 1286.23 164.576C1277.04 156.884 1267.74 149.088 1258.03 140.876C1255.55 141.603 1252.25 142.435 1249.15 143.37C1248.01 142.435 1246.46 141.708 1246.15 140.668C1244.19 134.328 1240.89 129.338 1234.17 127.571C1226.43 125.492 1220.85 121.022 1216.82 113.954C1215.68 111.979 1212.58 110.316 1210.21 110.108C1205.66 109.692 1202.77 107.822 1199.98 104.287C1193.79 96.2836 1185.42 93.269 1175.4 91.0861C1155.78 86.7204 1136.15 81.9389 1118.59 70.193C1107.44 62.8129 1093.7 58.9671 1079.86 57.3039C1073.76 56.5763 1067.67 55.1211 1061.88 53.1461C1049.18 48.8844 1036.89 43.2715 1023.98 39.8413C1010.76 36.3072 997.019 34.5401 983.488 32.0454C982.145 31.8375 980.596 32.0453 979.46 31.4216C964.586 24.0415 948.783 26.1203 933.083 25.6006C919.552 25.2888 905.918 25.0809 893.833 16.2455C885.156 9.90487 874.001 11.5679 863.775 10.9442C852.104 10.2166 840.432 9.59314 828.864 9.59314C819.361 9.59314 809.755 10.7363 799.529 11.464C790.233 1.69309 790.233 2.21272 777.528 3.56401C760.692 5.33108 743.856 7.51413 726.71 4.29183C711.939 1.4853 696.653 1.69319 681.572 0.653742C680.849 0.653742 680.126 0.445953 679.507 0.757789C665.356 7.41029 651.205 2.10898 637.055 0.653742C633.646 0.341906 630.134 -0.38561 626.829 0.238062C610.509 3.56431 594.086 3.25227 577.56 2.6286C566.714 2.21282 555.765 1.90088 542.958 4.08373C546.573 11.4638 549.362 17.2851 552.254 23.106C550.394 27.7836 546.469 26.5361 543.371 26.1203C535.934 25.0809 528.6 23.5217 520.647 21.9625C523.746 17.7008 526.741 13.6469 530.046 8.96937C512.177 5.53917 510.938 5.53927 501.848 15.8299C498.337 19.7798 494.824 22.2745 489.66 22.0666C481.913 21.6508 474.993 23.5219 468.073 27.3679C458.157 32.877 446.692 31.5255 435.743 31.3176C429.856 31.2137 424.897 32.3571 421.489 37.5543C417.151 35.5794 413.123 32.8768 408.784 31.8373C404.859 30.9018 400.315 30.902 396.493 32.0454C381.723 36.619 366.539 34.7478 351.562 35.9951C343.919 36.6188 336.895 38.1782 329.561 40.361C310.556 45.9741 292.067 54.1856 271.306 51.0672C266.038 50.2356 260.357 52.0028 254.986 52.7304C248.479 53.562 245.38 57.5116 244.864 63.8523C241.868 63.6444 238.976 63.4369 236.084 63.229C236.187 62.6053 236.394 61.9814 236.498 61.3577C238.77 62.709 241.558 63.5404 244.451 64.372ZM165.847 98.2583C166.983 97.4267 168.016 96.5953 169.152 95.8677C169.669 95.5559 170.392 95.5559 171.011 95.348C170.392 96.1796 170.082 97.6347 169.256 97.8426C168.016 98.2584 166.57 97.8425 165.331 97.7385C159.236 108.757 149.011 114.889 137.856 118.424C125.461 122.373 117.508 132.353 106.766 138.485C104.597 139.733 102.427 142.643 102.118 145.034C100.465 155.22 92.6146 161.457 87.8633 169.669C79.8067 183.286 64.4168 190.873 59.149 206.777C57.9095 210.415 50.5762 210.415 48.5104 206.777C46.238 202.723 44.8951 198.046 43.7589 193.576C42.8293 189.522 43.2424 185.156 42.1062 181.31C41.0733 177.776 38.8009 174.658 36.9417 171.228C46.5477 168.318 49.6464 160.21 54.0879 153.245C59.2524 145.034 64.4167 137.03 72.4733 131.209C92.0983 117.073 111.93 103.455 136.203 98.6739C138.785 98.1542 141.677 97.2187 143.743 95.5556C152.213 88.2794 158.927 92.8531 165.847 98.2583ZM582.518 321.637C581.072 321.325 579.625 320.909 578.076 320.597C578.076 320.493 578.179 320.285 578.179 320.181C579.729 320.701 581.175 321.117 582.724 321.637C578.799 315.4 573.944 311.554 565.681 313.009C560.414 313.945 554.836 313.113 549.362 312.49C536.451 310.93 523.849 307.293 510.525 309.06C507.736 309.475 504.534 306.773 501.745 305.629C502.365 298.561 506.393 296.378 511.248 295.027C534.695 288.375 554.216 273.926 574.977 262.076C580.762 258.75 583.654 253.345 585.1 245.861C582.001 240.975 578.386 235.362 574.564 229.333C570.949 231.204 568.057 231.932 566.405 233.803C548.329 253.345 524.469 262.284 499.783 268.313C477.162 273.822 453.922 276.837 430.888 280.475C424.794 281.41 418.39 281.722 412.4 280.786C387.713 277.044 363.027 278.084 338.238 278.499C334.106 278.603 329.768 279.123 326.049 277.98C304.255 270.911 281.325 270.911 259.014 267.689C249.305 266.338 240.112 264.467 231.436 260.205C223.896 256.567 216.562 253.241 207.783 254.904C202.618 255.943 199.107 252.721 195.595 248.875C186.505 238.792 176.796 229.333 164.711 222.577C159.857 219.874 155.518 216.236 156.241 209.584C166.88 205.842 166.88 205.738 175.97 197.318C178.965 194.512 182.27 191.601 185.886 190.146C195.595 186.404 203.858 180.583 211.708 173.931C215.84 170.397 220.384 167.07 225.239 164.576C237.84 157.819 250.751 151.582 263.559 145.242C266.554 143.787 269.756 141.915 272.855 141.811C295.269 141.292 316.03 134.224 336.791 127.051C340.613 125.7 345.158 123.517 348.67 124.453C360.032 127.259 368.605 121.646 377.488 116.449C383.375 113.019 389.469 109.796 394.84 106.782C403.827 108.133 411.986 110.42 420.146 110.316C428.203 110.212 436.259 107.717 444.419 106.47C460.739 103.871 476.955 99.7135 493.275 99.2977C528.91 98.4662 564.545 96.3874 599.767 91.6059C615.777 89.423 632.303 87.8637 647.177 79.5481C649.449 82.0428 651.618 84.5376 653.374 86.4086C664.22 87.0323 674.445 86.8244 684.361 88.4875C692.314 89.8388 699.855 89.839 705.846 84.5378C713.902 77.4695 723.301 85.1612 731.358 81.1073C731.874 80.8994 733.734 82.3548 734.354 83.3943C738.795 91.606 746.231 91.5018 754.081 90.9821C772.57 89.9426 791.266 87.656 809.652 89.0072C830.723 90.5664 851.897 91.2941 873.071 94.3086C901.579 98.4664 930.397 100.753 958.078 109.068C972.539 113.434 986.69 118.839 1001.25 122.581C1016.23 126.427 1029.97 131.521 1040.4 143.683C1042.47 146.177 1046.08 147.425 1049.08 148.984C1058.89 153.869 1069.53 157.611 1072.21 170.604C1072.63 172.475 1076.35 173.515 1078.41 175.282C1080.48 176.945 1083.06 178.712 1083.99 180.999C1090.39 195.967 1100.31 210.519 1089.77 227.774C1088.74 229.437 1088.74 231.828 1088.53 233.803C1085.13 262.7 1044.95 295.338 1018.5 295.131C1008.69 295.027 999.498 297.521 990.512 301.471C967.685 311.45 943.412 311.658 919.552 309.163C904.885 307.708 891.044 308.02 876.686 310.619C863.259 313.113 849.521 315.712 835.99 315.504C810.581 315.296 785.275 314.88 759.866 317.687C742.307 319.558 724.438 320.389 706.775 319.766C676.614 318.83 646.454 316.232 616.293 314.673C608.03 314.257 599.767 314.776 591.504 314.88C587.062 314.776 584.17 317.271 582.518 321.637ZM1131.71 220.29C1127.06 202.203 1122.62 185.053 1118.18 168.006C1117.97 167.382 1117.87 166.55 1118.07 165.927C1118.9 164.16 1119.52 161.665 1120.86 161.041C1122.31 160.313 1125.51 160.73 1126.34 161.873C1132.12 170.189 1137.6 178.816 1143.07 187.34C1143.69 188.379 1144.1 190.25 1143.59 191.289C1140.8 197.318 1143.69 203.451 1142.97 209.376C1142.24 214.365 1140.59 220.394 1131.71 220.29ZM380.587 342.53C375.319 343.361 372.633 344.297 370.051 344.193C355.177 343.569 340.303 342.842 325.429 341.802C324.293 341.698 322.951 338.995 322.434 337.228C322.228 336.501 323.674 334.526 324.603 334.214C327.082 333.383 329.871 332.551 332.453 332.863C346.604 334.422 360.755 336.189 374.906 338.06C376.042 338.268 376.971 339.619 380.587 342.53ZM497.614 351.261C518.581 351.053 524.469 352.093 533.455 357.394C520.131 361.968 509.492 353.34 497.614 351.261ZM176.383 288.478C168.533 289.933 161.406 291.181 154.175 292.428C153.659 292.532 153.039 291.805 152.523 291.389C163.265 281.202 164.608 280.994 176.383 288.478ZM274.921 321.845C268.414 321.949 261.494 325.275 253.024 317.271C262.836 315.92 269.343 316.128 274.921 321.845ZM536.864 84.4337C528.6 90.6705 525.398 91.2941 522.403 87.0324C521.783 86.0969 521.783 84.3297 522.196 83.2902C524.159 78.9245 527.671 78.8207 535.624 82.8746C536.244 83.0825 536.45 83.8101 536.864 84.4337ZM289.692 322.364C298.988 323.508 302.913 327.562 304.565 335.773C294.236 336.709 291.861 331.096 289.692 322.364ZM1172.71 110.42C1172.61 108.133 1172.3 107.406 1172.51 106.782C1174.06 102.104 1177.57 99.8174 1181.49 100.857C1182.11 100.961 1182.84 101.585 1182.94 102.104C1184.08 106.574 1180.36 107.718 1177.67 109.485C1176.74 110.212 1175.19 110.004 1172.71 110.42ZM1174.26 126.428C1174.99 125.7 1176.12 124.141 1176.54 124.245C1178.71 125.076 1180.77 126.428 1182.73 127.571C1182.84 127.571 1182.32 129.026 1182.01 129.13C1180.25 129.338 1178.29 129.546 1176.64 129.13C1175.71 129.026 1175.09 127.467 1174.26 126.428ZM430.682 88.1759C434.71 86.9285 437.912 81.3154 443.077 84.9535C440.081 91.0862 435.02 88.5917 430.682 88.1759ZM116.578 143.683C118.334 143.059 120.09 141.811 121.536 142.019C122.569 142.227 123.292 144.41 124.118 145.657C122.362 146.177 120.606 146.905 118.85 147.009C118.334 147.009 117.714 145.242 116.578 143.683ZM476.232 302.511C477.265 302.199 478.401 301.472 479.331 301.679C480.364 301.887 481.294 303.031 482.327 303.654C480.984 304.07 479.641 304.902 478.402 304.902C477.575 304.902 476.955 303.342 476.232 302.511ZM432.128 345.96C428.926 348.351 425.724 349.494 422.522 346.272C423.968 345.856 425.208 345.232 426.55 345.232C428.306 345.336 430.165 345.752 432.128 345.96ZM354.144 97.2188C354.971 95.6596 355.177 94.2045 356.003 93.6848C356.933 93.1651 358.276 93.373 359.515 93.2691C359.618 94.4125 359.928 96.3875 359.722 96.3875C357.966 96.9072 356.21 97.0109 354.144 97.2188ZM430.579 72.9998C431.302 73.6234 432.128 74.351 432.851 74.9746C431.921 75.5983 431.095 76.638 430.062 76.7419C429.339 76.8458 428.513 75.7023 427.686 75.0787C428.616 74.3511 429.649 73.7274 430.579 72.9998ZM271.202 106.678C272.132 107.406 273.062 108.133 273.888 108.757C272.855 109.381 271.926 110.108 270.789 110.524C270.376 110.628 269.653 109.9 269.137 109.588C269.86 108.653 270.583 107.717 271.202 106.678ZM272.649 128.506C271.719 127.883 270.789 127.259 269.86 126.636C270.273 126.22 270.893 125.284 271.1 125.284C272.132 125.7 272.959 126.324 273.991 126.947C273.475 127.467 273.062 127.987 272.649 128.506ZM193.942 301.367C194.045 300.848 194.149 299.912 194.149 299.912C195.285 299.912 196.318 300.12 197.454 300.224C197.35 300.744 197.247 301.679 197.144 301.679C196.111 301.575 195.078 301.471 193.942 301.367ZM397.01 347.831C397.526 347.623 398.042 347.103 398.455 347.207C398.765 347.311 398.972 348.039 399.179 348.559C398.662 348.767 398.145 349.286 397.732 349.182C397.319 349.078 397.216 348.247 397.01 347.831ZM395.77 88.6956C396.286 88.1759 396.803 87.3441 397.216 87.4481C398.455 87.552 399.591 88.0716 400.831 88.3835C400.418 88.9032 399.902 89.7351 399.488 89.7351C398.352 89.6311 397.113 89.1114 395.77 88.6956ZM710.39 15.9339C709.564 16.6615 708.841 17.2852 708.015 18.0128C707.705 17.597 706.982 16.7652 706.982 16.6612C707.705 15.8297 708.531 15.2059 709.254 14.4783C709.667 14.998 709.977 15.5181 710.39 15.9339ZM100.981 88.6956C101.291 88.1759 101.601 87.5519 102.014 87.344C102.531 87.1361 103.357 87.24 103.977 87.24C103.563 88.0715 103.15 88.7995 102.634 89.631C102.118 89.3192 101.601 89.0074 100.981 88.6956ZM343.712 117.8L344.745 117.072L344.952 118.216L343.712 117.8Z" fill="#50504D"/>
</svg>
